<svg width="25" height="20" viewBox="0 0 25 20" fill="none" xmlns="http://www.w3.org/2000/svg">
<path d="M21.1961 1.6087C21.1892 1.59524 21.1777 1.58469 21.1636 1.57894C19.5427 0.835259 17.8322 0.304955 16.0749 0.00130076C16.059 -0.00166741 16.0425 0.000473862 16.0278 0.00742003C16.0131 0.0143662 16.001 0.0257636 15.9932 0.0399914C15.7602 0.462735 15.5488 0.896962 15.3597 1.34102C13.4654 1.05347 11.5385 1.05347 9.64425 1.34102C9.45384 0.895834 9.23902 0.461499 9.00075 0.0399914C8.99258 0.0260728 8.9804 0.0149379 8.96581 0.00803684C8.95122 0.00113579 8.93489 -0.00121151 8.91895 0.00130076C7.16145 0.304318 5.45083 0.834662 3.83015 1.57899C3.81628 1.58487 3.80457 1.59491 3.79665 1.60773C0.555608 6.44779 -0.332235 11.1689 0.103311 15.8315C0.104536 15.8429 0.108047 15.8539 0.113635 15.864C0.119222 15.874 0.126772 15.8829 0.135836 15.8899C2.02306 17.2873 4.13395 18.3539 6.37842 19.0442C6.39422 19.049 6.4111 19.0488 6.42678 19.0436C6.44246 19.0385 6.4562 19.0287 6.46613 19.0155C6.94819 18.3596 7.37534 17.665 7.74322 16.9389C7.74827 16.9289 7.75116 16.918 7.75169 16.9068C7.75221 16.8957 7.75037 16.8845 7.74628 16.8741C7.74218 16.8637 7.73593 16.8543 7.72794 16.8465C7.71994 16.8387 7.71038 16.8327 7.69989 16.8288C7.02632 16.5711 6.37422 16.2604 5.74972 15.8997C5.73837 15.893 5.72884 15.8837 5.72197 15.8724C5.71511 15.8612 5.71111 15.8485 5.71033 15.8353C5.70955 15.8222 5.71202 15.8091 5.71752 15.7971C5.72302 15.7852 5.73137 15.7748 5.74185 15.7668C5.87289 15.6686 6.00401 15.5665 6.12914 15.4633C6.14026 15.4542 6.15371 15.4483 6.16798 15.4464C6.18225 15.4445 6.19678 15.4466 6.20992 15.4525C10.3013 17.3197 14.7308 17.3197 18.7737 15.4525C18.7869 15.4462 18.8016 15.4438 18.8161 15.4456C18.8306 15.4473 18.8442 15.4531 18.8555 15.4624C18.9807 15.5655 19.1118 15.6686 19.2438 15.7668C19.2543 15.7747 19.2628 15.785 19.2684 15.7969C19.2739 15.8088 19.2765 15.8219 19.2758 15.8351C19.2752 15.8482 19.2712 15.861 19.2645 15.8723C19.2577 15.8835 19.2482 15.893 19.2369 15.8997C18.6138 16.2635 17.9611 16.5739 17.2858 16.8278C17.2753 16.8318 17.2658 16.838 17.2579 16.8459C17.2499 16.8539 17.2437 16.8634 17.2397 16.8738C17.2357 16.8843 17.2339 16.8955 17.2346 16.9067C17.2352 16.9179 17.2382 16.9289 17.2433 16.9389C17.6173 17.661 18.0438 18.3547 18.5194 19.0143C18.5291 19.0279 18.5427 19.038 18.5585 19.0434C18.5742 19.0487 18.5912 19.049 18.6071 19.0441C20.8556 18.3561 22.9702 17.2894 24.8598 15.8899C24.869 15.8832 24.8766 15.8746 24.8822 15.8647C24.8879 15.8548 24.8913 15.8438 24.8923 15.8324C25.4137 10.442 24.0193 5.75961 21.1961 1.6087ZM8.35423 12.9924C7.12243 12.9924 6.10746 11.862 6.10746 10.4737C6.10746 9.08547 7.10274 7.95499 8.35423 7.95499C9.6155 7.95499 10.6207 9.0953 10.601 10.4737C10.601 11.862 9.60564 12.9924 8.35423 12.9924ZM16.6612 12.9924C15.4295 12.9924 14.4145 11.862 14.4145 10.4737C14.4145 9.08547 15.4098 7.95499 16.6612 7.95499C17.9226 7.95499 18.9277 9.0953 18.908 10.4737C18.908 11.862 17.9226 12.9924 16.6612 12.9924Z" fill="white"/>
</svg>
