<svg width="18" height="16" viewBox="0 0 18 16" fill="none" xmlns="http://www.w3.org/2000/svg">
<g clip-path="url(#clip0_96_76)">
<path d="M17.9938 7.98438C17.9938 8.54688 17.525 8.9875 16.9938 8.9875H15.9938L16.0157 13.9937C16.0157 14.0781 16.0094 14.1625 16 14.2469V14.7531C16 15.4438 15.4407 16.0031 14.75 16.0031H14.25C14.2157 16.0031 14.1813 16.0031 14.1469 16C14.1032 16.0031 14.0594 16.0031 14.0157 16.0031L13 16H12.25C11.5594 16 11 15.4406 11 14.75V14V12C11 11.4469 10.5532 11 10 11H8.00005C7.44692 11 7.00005 11.4469 7.00005 12V14V14.75C7.00005 15.4406 6.44067 16 5.75005 16H5.00005H4.00317C3.9563 16 3.90942 15.9969 3.86255 15.9937C3.82505 15.9969 3.78755 16 3.75005 16H3.25005C2.55942 16 2.00005 15.4406 2.00005 14.75V11.25C2.00005 11.2219 2.00005 11.1906 2.00317 11.1625V8.98438H1.00317C0.440674 8.98438 0.00317383 8.54688 0.00317383 7.98125C0.00317383 7.7 0.0969238 7.45 0.315674 7.23125L8.32505 0.25C8.5438 0.03125 8.7938 0 9.01255 0C9.2313 0 9.4813 0.0625 9.6688 0.21875L17.65 7.23438C17.9 7.45312 18.025 7.70312 17.9938 7.98438Z" fill="white"/>
</g>
<defs>
<clipPath id="clip0_96_76">
<rect width="18" height="16" fill="white"/>
</clipPath>
</defs>
</svg>
