<svg width="25" height="29" viewBox="0 0 25 29" fill="none" xmlns="http://www.w3.org/2000/svg">
<path d="M12.5028 8.08895C8.95566 8.08895 6.09453 10.9501 6.09453 14.4972C6.09453 18.0443 8.95566 20.9055 12.5028 20.9055C16.0499 20.9055 18.911 18.0443 18.911 14.4972C18.911 10.9501 16.0499 8.08895 12.5028 8.08895ZM12.5028 18.6634C10.2105 18.6634 8.33659 16.795 8.33659 14.4972C8.33659 12.1994 10.205 10.331 12.5028 10.331C14.8006 10.331 16.669 12.1994 16.669 14.4972C16.669 16.795 14.795 18.6634 12.5028 18.6634ZM20.6679 7.82682C20.6679 8.65783 19.9986 9.32152 19.1732 9.32152C18.3422 9.32152 17.6785 8.65225 17.6785 7.82682C17.6785 7.00139 18.3477 6.33212 19.1732 6.33212C19.9986 6.33212 20.6679 7.00139 20.6679 7.82682ZM24.9122 9.34383C24.8173 7.3416 24.36 5.56803 22.8932 4.1068C21.432 2.64556 19.6584 2.18822 17.6562 2.08783C15.5926 1.97071 9.40742 1.97071 7.34384 2.08783C5.34718 2.18265 3.57362 2.63998 2.1068 4.10122C0.639989 5.56246 0.188232 7.33602 0.0878416 9.33825C-0.0292805 11.4018 -0.0292805 17.587 0.0878416 19.6506C0.182655 21.6528 0.639989 23.4264 2.1068 24.8876C3.57362 26.3489 5.34161 26.8062 7.34384 26.9066C9.40742 27.0237 15.5926 27.0237 17.6562 26.9066C19.6584 26.8118 21.432 26.3544 22.8932 24.8876C24.3544 23.4264 24.8118 21.6528 24.9122 19.6506C25.0293 17.587 25.0293 11.4074 24.9122 9.34383ZM22.2462 21.8647C21.8112 22.9579 20.969 23.8 19.8703 24.2407C18.225 24.8932 14.321 24.7426 12.5028 24.7426C10.6846 24.7426 6.77496 24.8876 5.13525 24.2407C4.04211 23.8056 3.19994 22.9635 2.75934 21.8647C2.1068 20.2195 2.25739 16.3154 2.25739 14.4972C2.25739 12.679 2.11238 8.76937 2.75934 7.12966C3.19437 6.03652 4.03653 5.19436 5.13525 4.75376C6.78054 4.10122 10.6846 4.2518 12.5028 4.2518C14.321 4.2518 18.2306 4.1068 19.8703 4.75376C20.9635 5.18878 21.8056 6.03095 22.2462 7.12966C22.8988 8.77495 22.7482 12.679 22.7482 14.4972C22.7482 16.3154 22.8988 20.225 22.2462 21.8647Z" fill="white"/>
</svg>
